<?xml version="1.0" encoding="UTF-8"?>
<svg width="1200" height="630" viewBox="0 0 1200 630" fill="none" xmlns="http://www.w3.org/2000/svg">
  <defs>
    <linearGradient id="bg" x1="0" y1="0" x2="1200" y2="630" gradientUnits="userSpaceOnUse">
      <stop stop-color="#16111f"/>
      <stop offset="0.5" stop-color="#30306b"/>
      <stop offset="1" stop-color="#4695eb"/>
    </linearGradient>
    <radialGradient id="glowA" cx="0" cy="0" r="1" gradientUnits="userSpaceOnUse" gradientTransform="translate(220 110) rotate(90) scale(140 240)">
      <stop stop-color="#FFFFFF" stop-opacity="0.12"/>
      <stop offset="1" stop-color="#FFFFFF" stop-opacity="0"/>
    </radialGradient>
    <radialGradient id="glowB" cx="0" cy="0" r="1" gradientUnits="userSpaceOnUse" gradientTransform="translate(1020 120) rotate(90) scale(170 200)">
      <stop stop-color="#FFFFFF" stop-opacity="0.15"/>
      <stop offset="1" stop-color="#FFFFFF" stop-opacity="0"/>
    </radialGradient>
  </defs>
  <rect width="1200" height="630" fill="url(#bg)"/>
  <rect width="1200" height="630" fill="url(#glowA)" opacity="0.72"/>
  <rect width="1200" height="630" fill="url(#glowB)" opacity="0.7"/>
  <text x="54" y="331" fill="white" font-family="Georgia, serif" font-size="84" font-weight="700">Quarkus</text>
  <text x="54" y="388" fill="#FFFFFF" fill-opacity="0.95" font-family="Arial, sans-serif" font-size="34" font-weight="500">java cloud native</text>
  <text x="54" y="578" fill="#FFFFFF" fill-opacity="0.82" font-family="Arial, sans-serif" font-size="22" font-weight="700" letter-spacing="2.4">OLA-MUNDO</text>
  <rect x="662" y="49" width="483" height="533" rx="36" fill="#FFFFFF" fill-opacity="0.10" stroke="#FFFFFF" stroke-opacity="0.18"/>
  <g transform="translate(705 112)">
    
      <polygon points="330,78 396,116 396,192 330,230 264,192 264,116" fill="#dbeafe" opacity="0.96"/>
      <polygon points="330,104 370,128 370,176 330,200 290,176 290,128" fill="#4338ca" opacity="0.95"/>
      <path d="M150 280 C158 226 184 182 224 138 L246 160 C214 194 196 228 190 276 Z" fill="#e0f2fe" opacity="0.92"/>
      <path d="M180 292 C198 270 220 258 250 252 L244 296 C220 300 200 312 184 330 Z" fill="#7dd3fc" opacity="0.96"/>
      <path d="M194 334 C218 308 242 292 276 282 C258 320 234 346 196 360 Z" fill="#38bdf8" opacity="0.95"/>
      <circle cx="156" cy="318" r="12" fill="#f8fafc" opacity="0.86"/>
      <circle cx="130" cy="344" r="8" fill="#f8fafc" opacity="0.62"/>
    
  </g>
</svg>