<?xml version="1.0" encoding="UTF-8"?>
<svg width="1200" height="630" viewBox="0 0 1200 630" fill="none" xmlns="http://www.w3.org/2000/svg">
  <defs>
    <linearGradient id="bg" x1="0" y1="0" x2="1200" y2="630" gradientUnits="userSpaceOnUse">
      <stop stop-color="#20103a"/>
      <stop offset="0.5" stop-color="#4c1d95"/>
      <stop offset="1" stop-color="#7c3aed"/>
    </linearGradient>
    <radialGradient id="glowA" cx="0" cy="0" r="1" gradientUnits="userSpaceOnUse" gradientTransform="translate(220 110) rotate(90) scale(140 240)">
      <stop stop-color="#FFFFFF" stop-opacity="0.12"/>
      <stop offset="1" stop-color="#FFFFFF" stop-opacity="0"/>
    </radialGradient>
    <radialGradient id="glowB" cx="0" cy="0" r="1" gradientUnits="userSpaceOnUse" gradientTransform="translate(1020 120) rotate(90) scale(170 200)">
      <stop stop-color="#FFFFFF" stop-opacity="0.15"/>
      <stop offset="1" stop-color="#FFFFFF" stop-opacity="0"/>
    </radialGradient>
  </defs>
  <rect width="1200" height="630" fill="url(#bg)"/>
  <rect width="1200" height="630" fill="url(#glowA)" opacity="0.72"/>
  <rect width="1200" height="630" fill="url(#glowB)" opacity="0.7"/>
  <text x="54" y="331" fill="white" font-family="Georgia, serif" font-size="84" font-weight="700">JWT</text>
  <text x="54" y="388" fill="#FFFFFF" fill-opacity="0.95" font-family="Arial, sans-serif" font-size="34" font-weight="500">autenticacao por tokens</text>
  <text x="54" y="578" fill="#FFFFFF" fill-opacity="0.82" font-family="Arial, sans-serif" font-size="22" font-weight="700" letter-spacing="2.4">OLA-MUNDO</text>
  <rect x="662" y="49" width="483" height="533" rx="36" fill="#FFFFFF" fill-opacity="0.10" stroke="#FFFFFF" stroke-opacity="0.18"/>
  <g transform="translate(705 112)">
    
      <circle cx="138" cy="180" r="40" fill="#f5d0fe" opacity="0.95"/>
      <circle cx="230" cy="180" r="40" fill="#c4b5fd" opacity="0.95"/>
      <circle cx="322" cy="180" r="40" fill="#ddd6fe" opacity="0.95"/>
      <rect x="116" y="246" width="228" height="26" rx="13" fill="#ede9fe" fill-opacity="0.9"/>
      <rect x="136" y="298" width="188" height="14" rx="7" fill="#ddd6fe" fill-opacity="0.55"/>
      <path d="M138 180 H322" stroke="#6d28d9" stroke-width="10" stroke-linecap="round" opacity="0.88"/>
      <g transform="translate(346 104)">
        <rect x="0" y="34" width="76" height="62" rx="20" fill="#f5d0fe" opacity="0.94"/>
        <path d="M18 34 C18 12 58 12 58 34" stroke="#f5d0fe" stroke-width="14" stroke-linecap="round" fill="none"/>
      </g>
    
  </g>
</svg>