<?xml version="1.0" encoding="UTF-8"?>
<svg width="1200" height="630" viewBox="0 0 1200 630" fill="none" xmlns="http://www.w3.org/2000/svg">
  <defs>
    <linearGradient id="bg" x1="0" y1="0" x2="1200" y2="630" gradientUnits="userSpaceOnUse">
      <stop stop-color="#0f172a"/>
      <stop offset="0.5" stop-color="#1d4ed8"/>
      <stop offset="1" stop-color="#60a5fa"/>
    </linearGradient>
    <radialGradient id="glowA" cx="0" cy="0" r="1" gradientUnits="userSpaceOnUse" gradientTransform="translate(220 110) rotate(90) scale(140 240)">
      <stop stop-color="#FFFFFF" stop-opacity="0.12"/>
      <stop offset="1" stop-color="#FFFFFF" stop-opacity="0"/>
    </radialGradient>
  </defs>
  <rect width="1200" height="630" fill="url(#bg)"/>
  <rect width="1200" height="630" fill="url(#glowA)" opacity="0.72"/>
  <text x="54" y="331" fill="white" font-family="Georgia, serif" font-size="84" font-weight="700">Entrega continua</text>
  <text x="54" y="388" fill="#FFFFFF" fill-opacity="0.95" font-family="Arial, sans-serif" font-size="34" font-weight="500">pipeline pronto para publicar com seguranca</text>
  <text x="54" y="578" fill="#FFFFFF" fill-opacity="0.82" font-family="Arial, sans-serif" font-size="22" font-weight="700" letter-spacing="2.4">OLA-MUNDO</text>
  <rect x="662" y="49" width="483" height="533" rx="36" fill="#FFFFFF" fill-opacity="0.10" stroke="#FFFFFF" stroke-opacity="0.18"/>
  <g transform="translate(700 106)">
    <rect x="34" y="120" width="96" height="84" rx="24" fill="#dbeafe" fill-opacity="0.94"/>
    <rect x="162" y="120" width="96" height="84" rx="24" fill="#bfdbfe" fill-opacity="0.94"/>
    <rect x="290" y="120" width="96" height="84" rx="24" fill="#93c5fd" fill-opacity="0.94"/>
    <rect x="98" y="264" width="224" height="84" rx="24" fill="#eff6ff" fill-opacity="0.94"/>
    <path d="M130 162 H162" stroke="#eff6ff" stroke-width="12" stroke-linecap="round"/>
    <path d="M258 162 H290" stroke="#eff6ff" stroke-width="12" stroke-linecap="round"/>
    <path d="M210 204 V264" stroke="#eff6ff" stroke-width="12" stroke-linecap="round"/>
    <path d="M194 250 L210 266 L226 250" stroke="#eff6ff" stroke-width="12" stroke-linecap="round" stroke-linejoin="round"/>
    <circle cx="82" cy="162" r="22" fill="#2563eb"/>
    <path d="M182 162 l14 14 l28 -30" stroke="#1d4ed8" stroke-width="10" stroke-linecap="round" stroke-linejoin="round" fill="none"/>
    <rect x="318" y="142" width="42" height="42" rx="12" fill="#3b82f6"/>
    <path d="M186 306 H248" stroke="#3b82f6" stroke-width="12" stroke-linecap="round"/>
    <path d="M110 390 C150 356 270 356 310 390" stroke="#dbeafe" stroke-width="12" stroke-linecap="round" fill="none"/>
  </g>
</svg>
