<?xml version="1.0" encoding="UTF-8"?>
<svg width="1200" height="630" viewBox="0 0 1200 630" fill="none" xmlns="http://www.w3.org/2000/svg">
  <defs>
    <linearGradient id="bg" x1="0" y1="0" x2="1200" y2="630" gradientUnits="userSpaceOnUse">
      <stop stop-color="#141a2e"/>
      <stop offset="0.5" stop-color="#7c3aed"/>
      <stop offset="1" stop-color="#ec4899"/>
    </linearGradient>
    <radialGradient id="glowA" cx="0" cy="0" r="1" gradientUnits="userSpaceOnUse" gradientTransform="translate(220 110) rotate(90) scale(140 240)">
      <stop stop-color="#FFFFFF" stop-opacity="0.12"/>
      <stop offset="1" stop-color="#FFFFFF" stop-opacity="0"/>
    </radialGradient>
    <radialGradient id="glowB" cx="0" cy="0" r="1" gradientUnits="userSpaceOnUse" gradientTransform="translate(1020 120) rotate(90) scale(170 200)">
      <stop stop-color="#FFFFFF" stop-opacity="0.15"/>
      <stop offset="1" stop-color="#FFFFFF" stop-opacity="0"/>
    </radialGradient>
  </defs>
  <rect width="1200" height="630" fill="url(#bg)"/>
  <rect width="1200" height="630" fill="url(#glowA)" opacity="0.72"/>
  <rect width="1200" height="630" fill="url(#glowB)" opacity="0.7"/>
  <text x="54" y="331" fill="white" font-family="Georgia, serif" font-size="84" font-weight="700">Front-end</text>
  <text x="54" y="388" fill="#FFFFFF" fill-opacity="0.95" font-family="Arial, sans-serif" font-size="34" font-weight="500">comunidades e ecossistema</text>
  <text x="54" y="578" fill="#FFFFFF" fill-opacity="0.82" font-family="Arial, sans-serif" font-size="22" font-weight="700" letter-spacing="2.4">OLA-MUNDO</text>
  <rect x="662" y="49" width="483" height="533" rx="36" fill="#FFFFFF" fill-opacity="0.10" stroke="#FFFFFF" stroke-opacity="0.18"/>
  <g transform="translate(705 112)">
    
      <circle cx="120" cy="136" r="34" fill="#f5d0fe"/>
      <circle cx="230" cy="112" r="34" fill="#c4b5fd"/>
      <circle cx="326" cy="164" r="34" fill="#fbcfe8"/>
      <circle cx="176" cy="242" r="34" fill="#ddd6fe"/>
      <circle cx="304" cy="266" r="34" fill="#f9a8d4"/>
      <g stroke="#f5d0fe" stroke-width="8" stroke-linecap="round" opacity="0.78">
        <line x1="148" y1="146" x2="202" y2="122"/>
        <line x1="256" y1="124" x2="300" y2="152"/>
        <line x1="146" y1="162" x2="160" y2="210"/>
        <line x1="206" y1="242" x2="270" y2="266"/>
        <line x1="322" y1="198" x2="308" y2="232"/>
      </g>
      <g fill="#4c1d95" opacity="0.18">
        <circle cx="120" cy="130" r="8"/><circle cx="230" cy="106" r="8"/><circle cx="326" cy="158" r="8"/><circle cx="176" cy="236" r="8"/><circle cx="304" cy="260" r="8"/>
      </g>
      <rect x="62" y="312" width="312" height="18" rx="9" fill="#f5d0fe" fill-opacity="0.36"/>
    
  </g>
</svg>