<?xml version="1.0" encoding="UTF-8"?>
<svg width="1200" height="630" viewBox="0 0 1200 630" fill="none" xmlns="http://www.w3.org/2000/svg">
  <defs>
    <linearGradient id="bg" x1="0" y1="0" x2="1200" y2="630" gradientUnits="userSpaceOnUse">
      <stop stop-color="#1f2a17"/>
      <stop offset="0.5" stop-color="#3f6212"/>
      <stop offset="1" stop-color="#84cc16"/>
    </linearGradient>
    <radialGradient id="glowA" cx="0" cy="0" r="1" gradientUnits="userSpaceOnUse" gradientTransform="translate(220 110) rotate(90) scale(140 240)">
      <stop stop-color="#FFFFFF" stop-opacity="0.12"/>
      <stop offset="1" stop-color="#FFFFFF" stop-opacity="0"/>
    </radialGradient>
  </defs>
  <rect width="1200" height="630" fill="url(#bg)"/>
  <rect width="1200" height="630" fill="url(#glowA)" opacity="0.72"/>
  <text x="54" y="331" fill="white" font-family="Georgia, serif" font-size="84" font-weight="700">Lean</text>
  <text x="54" y="388" fill="#FFFFFF" fill-opacity="0.95" font-family="Arial, sans-serif" font-size="34" font-weight="500">foco em valor e reducao de desperdicio</text>
  <text x="54" y="578" fill="#FFFFFF" fill-opacity="0.82" font-family="Arial, sans-serif" font-size="22" font-weight="700" letter-spacing="2.4">OLA-MUNDO</text>
  <rect x="662" y="49" width="483" height="533" rx="36" fill="#FFFFFF" fill-opacity="0.10" stroke="#FFFFFF" stroke-opacity="0.18"/>
  <g transform="translate(706 110)">
    <path d="M58 320 H198" stroke="#ecfccb" stroke-width="18" stroke-linecap="round"/>
    <path d="M188 300 L220 320 L188 340" stroke="#ecfccb" stroke-width="18" stroke-linecap="round" stroke-linejoin="round"/>
    <path d="M252 256 H392" stroke="#d9f99d" stroke-width="18" stroke-linecap="round"/>
    <path d="M382 236 L414 256 L382 276" stroke="#d9f99d" stroke-width="18" stroke-linecap="round" stroke-linejoin="round"/>
    <path d="M154 176 H294" stroke="#bef264" stroke-width="18" stroke-linecap="round"/>
    <path d="M284 156 L316 176 L284 196" stroke="#bef264" stroke-width="18" stroke-linecap="round" stroke-linejoin="round"/>
    <circle cx="116" cy="320" r="38" fill="#ecfccb" fill-opacity="0.96"/>
    <circle cx="312" cy="256" r="38" fill="#d9f99d" fill-opacity="0.96"/>
    <circle cx="224" cy="176" r="38" fill="#bef264" fill-opacity="0.96"/>
    <rect x="54" y="64" width="350" height="64" rx="24" fill="#f7fee7" fill-opacity="0.92"/>
    <rect x="82" y="88" width="98" height="16" rx="8" fill="#65a30d"/>
    <rect x="196" y="88" width="74" height="16" rx="8" fill="#84cc16"/>
    <rect x="286" y="88" width="88" height="16" rx="8" fill="#a3e635"/>
  </g>
</svg>
