<?xml version="1.0" encoding="UTF-8"?>
<svg width="1200" height="630" viewBox="0 0 1200 630" fill="none" xmlns="http://www.w3.org/2000/svg">
  <defs>
    <linearGradient id="bg" x1="0" y1="0" x2="1200" y2="630" gradientUnits="userSpaceOnUse">
      <stop stop-color="#0f172a"/>
      <stop offset="0.5" stop-color="#1d4ed8"/>
      <stop offset="1" stop-color="#38bdf8"/>
    </linearGradient>
    <radialGradient id="glowA" cx="0" cy="0" r="1" gradientUnits="userSpaceOnUse" gradientTransform="translate(220 110) rotate(90) scale(140 240)">
      <stop stop-color="#FFFFFF" stop-opacity="0.12"/>
      <stop offset="1" stop-color="#FFFFFF" stop-opacity="0"/>
    </radialGradient>
    <radialGradient id="glowB" cx="0" cy="0" r="1" gradientUnits="userSpaceOnUse" gradientTransform="translate(1020 120) rotate(90) scale(170 200)">
      <stop stop-color="#FFFFFF" stop-opacity="0.15"/>
      <stop offset="1" stop-color="#FFFFFF" stop-opacity="0"/>
    </radialGradient>
  </defs>
  <rect width="1200" height="630" fill="url(#bg)"/>
  <rect width="1200" height="630" fill="url(#glowA)" opacity="0.72"/>
  <rect width="1200" height="630" fill="url(#glowB)" opacity="0.7"/>
  <text x="54" y="331" fill="white" font-family="Georgia, serif" font-size="84" font-weight="700">Docker Swarm</text>
  <text x="54" y="388" fill="#FFFFFF" fill-opacity="0.95" font-family="Arial, sans-serif" font-size="34" font-weight="500">cluster e replicas</text>
  <text x="54" y="578" fill="#FFFFFF" fill-opacity="0.82" font-family="Arial, sans-serif" font-size="22" font-weight="700" letter-spacing="2.4">OLA-MUNDO</text>
  <rect x="662" y="49" width="483" height="533" rx="36" fill="#FFFFFF" fill-opacity="0.10" stroke="#FFFFFF" stroke-opacity="0.18"/>
  <g transform="translate(705 112)">
    
      <circle cx="210" cy="192" r="58" fill="#eff6ff" opacity="0.96"/>
      <rect x="184" y="174" width="52" height="36" rx="12" fill="#1d4ed8"/>
      <circle cx="210" cy="192" r="86" fill="none" stroke="#dbeafe" stroke-width="4" stroke-dasharray="8 10" opacity="0.5"/>
      <line x1="210" y1="106" x2="210" y2="58" stroke="#e0f2fe" stroke-width="6" stroke-linecap="round"/>
      <line x1="285" y1="142" x2="334" y2="116" stroke="#e0f2fe" stroke-width="6" stroke-linecap="round"/>
      <line x1="286" y1="242" x2="336" y2="270" stroke="#e0f2fe" stroke-width="6" stroke-linecap="round"/>
      <line x1="135" y1="242" x2="84" y2="270" stroke="#e0f2fe" stroke-width="6" stroke-linecap="round"/>
      <line x1="134" y1="142" x2="86" y2="116" stroke="#e0f2fe" stroke-width="6" stroke-linecap="round"/>
      <g>
        <rect x="176" y="30" width="68" height="44" rx="14" fill="#dbeafe" opacity="0.95"/>
        <rect x="302" y="92" width="68" height="44" rx="14" fill="#dbeafe" opacity="0.92"/>
        <rect x="304" y="252" width="68" height="44" rx="14" fill="#dbeafe" opacity="0.92"/>
        <rect x="48" y="252" width="68" height="44" rx="14" fill="#dbeafe" opacity="0.92"/>
        <rect x="50" y="92" width="68" height="44" rx="14" fill="#dbeafe" opacity="0.92"/>
      </g>
      <g fill="#1e293b" opacity="0.16">
        <rect x="188" y="42" width="18" height="8" rx="4"/><rect x="210" y="42" width="18" height="8" rx="4"/>
        <rect x="314" y="104" width="18" height="8" rx="4"/><rect x="336" y="104" width="18" height="8" rx="4"/>
        <rect x="316" y="264" width="18" height="8" rx="4"/><rect x="338" y="264" width="18" height="8" rx="4"/>
        <rect x="60" y="264" width="18" height="8" rx="4"/><rect x="82" y="264" width="18" height="8" rx="4"/>
        <rect x="62" y="104" width="18" height="8" rx="4"/><rect x="84" y="104" width="18" height="8" rx="4"/>
      </g>
    
  </g>
</svg>