<?xml version="1.0" encoding="UTF-8"?>
<svg width="1200" height="630" viewBox="0 0 1200 630" fill="none" xmlns="http://www.w3.org/2000/svg">
  <defs>
    <linearGradient id="bg" x1="0" y1="0" x2="1200" y2="630" gradientUnits="userSpaceOnUse">
      <stop stop-color="#220d0d"/>
      <stop offset="0.5" stop-color="#7f1d1d"/>
      <stop offset="1" stop-color="#ef4444"/>
    </linearGradient>
    <radialGradient id="glowA" cx="0" cy="0" r="1" gradientUnits="userSpaceOnUse" gradientTransform="translate(220 110) rotate(90) scale(140 240)">
      <stop stop-color="#FFFFFF" stop-opacity="0.12"/>
      <stop offset="1" stop-color="#FFFFFF" stop-opacity="0"/>
    </radialGradient>
    <radialGradient id="glowB" cx="0" cy="0" r="1" gradientUnits="userSpaceOnUse" gradientTransform="translate(1020 120) rotate(90) scale(170 200)">
      <stop stop-color="#FFFFFF" stop-opacity="0.15"/>
      <stop offset="1" stop-color="#FFFFFF" stop-opacity="0"/>
    </radialGradient>
  </defs>
  <rect width="1200" height="630" fill="url(#bg)"/>
  <rect width="1200" height="630" fill="url(#glowA)" opacity="0.72"/>
  <rect width="1200" height="630" fill="url(#glowB)" opacity="0.7"/>
  <text x="54" y="331" fill="white" font-family="Georgia, serif" font-size="84" font-weight="700">Jenkins</text>
  <text x="54" y="388" fill="#FFFFFF" fill-opacity="0.95" font-family="Arial, sans-serif" font-size="34" font-weight="500">pipelines e automacao</text>
  <text x="54" y="578" fill="#FFFFFF" fill-opacity="0.82" font-family="Arial, sans-serif" font-size="22" font-weight="700" letter-spacing="2.4">OLA-MUNDO</text>
  <rect x="662" y="49" width="483" height="533" rx="36" fill="#FFFFFF" fill-opacity="0.10" stroke="#FFFFFF" stroke-opacity="0.18"/>
  <g transform="translate(705 112)">
    
      <path d="M88 210 H152 L184 162 H244 L282 242 H344" stroke="#fee2e2" stroke-width="12" stroke-linecap="round" stroke-linejoin="round" fill="none"/>
      <circle cx="88" cy="210" r="22" fill="#fee2e2"/>
      <circle cx="152" cy="210" r="22" fill="#fecaca"/>
      <circle cx="184" cy="162" r="22" fill="#fee2e2"/>
      <circle cx="244" cy="162" r="22" fill="#fecaca"/>
      <circle cx="282" cy="242" r="22" fill="#fee2e2"/>
      <circle cx="344" cy="242" r="22" fill="#fecaca"/>
      <g transform="translate(184 124)">
        <circle cx="0" cy="0" r="34" fill="#fff" opacity="0.96"/>
        <g transform="translate(-1 -1)" fill="#b91c1c">
          <circle cx="0" cy="-22" r="6"/><circle cx="19" cy="-11" r="6"/><circle cx="19" cy="11" r="6"/><circle cx="0" cy="22" r="6"/><circle cx="-19" cy="11" r="6"/><circle cx="-19" cy="-11" r="6"/>
          <circle cx="0" cy="0" r="10"/>
        </g>
      </g>
      <path d="M268 242 l12 12 l24 -28" stroke="#7f1d1d" stroke-width="10" stroke-linecap="round" stroke-linejoin="round" fill="none"/>
      <rect x="342" y="94" width="92" height="120" rx="24" fill="#fff2f2" opacity="0.95"/>
      <rect x="360" y="116" width="56" height="12" rx="6" fill="#ef4444" opacity="0.7"/>
      <rect x="360" y="142" width="48" height="12" rx="6" fill="#ef4444" opacity="0.55"/>
      <rect x="360" y="168" width="62" height="12" rx="6" fill="#ef4444" opacity="0.4"/>
    
  </g>
</svg>