<?xml version="1.0" encoding="UTF-8"?>
<svg width="1200" height="630" viewBox="0 0 1200 630" fill="none" xmlns="http://www.w3.org/2000/svg">
  <defs>
    <linearGradient id="bg" x1="0" y1="0" x2="1200" y2="630" gradientUnits="userSpaceOnUse">
      <stop stop-color="#0b1f15"/>
      <stop offset="0.5" stop-color="#166534"/>
      <stop offset="1" stop-color="#84cc16"/>
    </linearGradient>
    <radialGradient id="glowA" cx="0" cy="0" r="1" gradientUnits="userSpaceOnUse" gradientTransform="translate(220 110) rotate(90) scale(140 240)">
      <stop stop-color="#FFFFFF" stop-opacity="0.12"/>
      <stop offset="1" stop-color="#FFFFFF" stop-opacity="0"/>
    </radialGradient>
    <radialGradient id="glowB" cx="0" cy="0" r="1" gradientUnits="userSpaceOnUse" gradientTransform="translate(1020 120) rotate(90) scale(170 200)">
      <stop stop-color="#FFFFFF" stop-opacity="0.15"/>
      <stop offset="1" stop-color="#FFFFFF" stop-opacity="0"/>
    </radialGradient>
  </defs>
  <rect width="1200" height="630" fill="url(#bg)"/>
  <rect width="1200" height="630" fill="url(#glowA)" opacity="0.72"/>
  <rect width="1200" height="630" fill="url(#glowB)" opacity="0.7"/>
  <text x="54" y="331" fill="white" font-family="Georgia, serif" font-size="84" font-weight="700">Spring Boot</text>
  <text x="54" y="388" fill="#FFFFFF" fill-opacity="0.95" font-family="Arial, sans-serif" font-size="34" font-weight="500">apis com java</text>
  <text x="54" y="578" fill="#FFFFFF" fill-opacity="0.82" font-family="Arial, sans-serif" font-size="22" font-weight="700" letter-spacing="2.4">OLA-MUNDO</text>
  <rect x="662" y="49" width="483" height="533" rx="36" fill="#FFFFFF" fill-opacity="0.10" stroke="#FFFFFF" stroke-opacity="0.18"/>
  <g transform="translate(705 112)">
    
      <rect x="68" y="96" width="178" height="212" rx="30" fill="#f7fee7" opacity="0.95"/>
      <rect x="96" y="126" width="122" height="16" rx="8" fill="#65a30d" opacity="0.28"/>
      <rect x="96" y="156" width="98" height="16" rx="8" fill="#65a30d" opacity="0.22"/>
      <rect x="96" y="186" width="110" height="16" rx="8" fill="#65a30d" opacity="0.18"/>
      <g transform="translate(336 188)">
        <circle cx="0" cy="0" r="84" fill="#ecfccb" opacity="0.96"/>
        <path d="M0 54 V4" stroke="#166534" stroke-width="12" stroke-linecap="round"/>
        <path d="M0 6 C-10 -42 -62 -56 -88 -34 C-56 -14 -30 6 0 6 Z" fill="#65a30d"/>
        <path d="M0 6 C10 -42 62 -56 88 -34 C56 -14 30 6 0 6 Z" fill="#84cc16"/>
      </g>
      <path d="M268 258 C300 236 328 236 360 258" stroke="#14532d" stroke-width="10" stroke-linecap="round" fill="none" opacity="0.72"/>
    
  </g>
</svg>