<?xml version="1.0" encoding="UTF-8"?>
<svg width="1200" height="630" viewBox="0 0 1200 630" fill="none" xmlns="http://www.w3.org/2000/svg">
  <defs>
    <linearGradient id="bg" x1="0" y1="0" x2="1200" y2="630" gradientUnits="userSpaceOnUse">
      <stop stop-color="#250b14"/>
      <stop offset="0.5" stop-color="#be123c"/>
      <stop offset="1" stop-color="#fb7185"/>
    </linearGradient>
    <radialGradient id="glowA" cx="0" cy="0" r="1" gradientUnits="userSpaceOnUse" gradientTransform="translate(220 110) rotate(90) scale(140 240)">
      <stop stop-color="#FFFFFF" stop-opacity="0.12"/>
      <stop offset="1" stop-color="#FFFFFF" stop-opacity="0"/>
    </radialGradient>
    <radialGradient id="glowB" cx="0" cy="0" r="1" gradientUnits="userSpaceOnUse" gradientTransform="translate(1020 120) rotate(90) scale(170 200)">
      <stop stop-color="#FFFFFF" stop-opacity="0.15"/>
      <stop offset="1" stop-color="#FFFFFF" stop-opacity="0"/>
    </radialGradient>
  </defs>
  <rect width="1200" height="630" fill="url(#bg)"/>
  <rect width="1200" height="630" fill="url(#glowA)" opacity="0.72"/>
  <rect width="1200" height="630" fill="url(#glowB)" opacity="0.7"/>
  <text x="54" y="331" fill="white" font-family="Georgia, serif" font-size="84" font-weight="700">Angular Forms</text>
  <text x="54" y="388" fill="#FFFFFF" fill-opacity="0.95" font-family="Arial, sans-serif" font-size="34" font-weight="500">formularios reativos e validacao</text>
  <text x="54" y="578" fill="#FFFFFF" fill-opacity="0.82" font-family="Arial, sans-serif" font-size="22" font-weight="700" letter-spacing="2.4">OLA-MUNDO</text>
  <rect x="662" y="49" width="483" height="533" rx="36" fill="#FFFFFF" fill-opacity="0.10" stroke="#FFFFFF" stroke-opacity="0.18"/>
  <g transform="translate(705 112)">
    
      <rect x="54" y="88" width="244" height="226" rx="30" fill="#fff1f2" opacity="0.96"/>
      <path d="M344 96 L402 118 L392 236 L344 268 L296 236 L286 118 Z" fill="#be123c" opacity="0.96"/>
      <path d="M344 126 L326 212 H346 L344 236 L362 212 H342 L344 126 Z" fill="#ffe4e6"/>
      <rect x="84" y="132" width="130" height="16" rx="8" fill="#e11d48" fill-opacity="0.16"/>
      <rect x="84" y="172" width="184" height="20" rx="10" fill="#ffffff"/>
      <rect x="84" y="216" width="184" height="20" rx="10" fill="#ffffff"/>
      <rect x="84" y="260" width="122" height="20" rx="10" fill="#ffffff"/>
      <path d="M238 183 l10 10 l18 -20" stroke="#10b981" stroke-width="8" stroke-linecap="round" stroke-linejoin="round" fill="none"/>
      <path d="M238 227 l10 10 l18 -20" stroke="#10b981" stroke-width="8" stroke-linecap="round" stroke-linejoin="round" fill="none"/>
      <rect x="84" y="296" width="90" height="12" rx="6" fill="#e11d48" fill-opacity="0.18"/>
    
  </g>
</svg>