<?xml version="1.0" encoding="UTF-8"?>
<svg width="1200" height="630" viewBox="0 0 1200 630" fill="none" xmlns="http://www.w3.org/2000/svg">
  <defs>
    <linearGradient id="bg" x1="0" y1="0" x2="1200" y2="630" gradientUnits="userSpaceOnUse">
      <stop stop-color="#0f0f10"/>
      <stop offset="0.5" stop-color="#26262b"/>
      <stop offset="1" stop-color="#52525b"/>
    </linearGradient>
    <radialGradient id="glowA" cx="0" cy="0" r="1" gradientUnits="userSpaceOnUse" gradientTransform="translate(220 110) rotate(90) scale(140 240)">
      <stop stop-color="#FFFFFF" stop-opacity="0.12"/>
      <stop offset="1" stop-color="#FFFFFF" stop-opacity="0"/>
    </radialGradient>
    <radialGradient id="glowB" cx="0" cy="0" r="1" gradientUnits="userSpaceOnUse" gradientTransform="translate(1020 120) rotate(90) scale(170 200)">
      <stop stop-color="#FFFFFF" stop-opacity="0.15"/>
      <stop offset="1" stop-color="#FFFFFF" stop-opacity="0"/>
    </radialGradient>
  </defs>
  <rect width="1200" height="630" fill="url(#bg)"/>
  <rect width="1200" height="630" fill="url(#glowA)" opacity="0.72"/>
  <rect width="1200" height="630" fill="url(#glowB)" opacity="0.7"/>
  <text x="54" y="331" fill="white" font-family="Georgia, serif" font-size="84" font-weight="700">Next.js</text>
  <text x="54" y="388" fill="#FFFFFF" fill-opacity="0.95" font-family="Arial, sans-serif" font-size="34" font-weight="500">react para producao web</text>
  <text x="54" y="578" fill="#FFFFFF" fill-opacity="0.82" font-family="Arial, sans-serif" font-size="22" font-weight="700" letter-spacing="2.4">OLA-MUNDO</text>
  <rect x="662" y="49" width="483" height="533" rx="36" fill="#FFFFFF" fill-opacity="0.10" stroke="#FFFFFF" stroke-opacity="0.18"/>
  <g transform="translate(705 112)">
    
      <rect x="68" y="88" width="320" height="216" rx="28" fill="#f8fafc" opacity="0.95"/>
      <rect x="68" y="88" width="320" height="38" rx="28" fill="#e5e7eb" opacity="0.95"/>
      <circle cx="98" cy="108" r="6" fill="#a1a1aa"/><circle cx="118" cy="108" r="6" fill="#a1a1aa"/><circle cx="138" cy="108" r="6" fill="#a1a1aa"/>
      <path d="M112 250 L172 154 L232 250" stroke="#111827" stroke-width="16" stroke-linecap="round" stroke-linejoin="round" fill="none"/>
      <path d="M248 154 V250" stroke="#111827" stroke-width="16" stroke-linecap="round"/>
      <path d="M248 154 C316 154 332 246 348 246" stroke="#111827" stroke-width="16" stroke-linecap="round" fill="none"/>
      <circle cx="398" cy="158" r="54" fill="none" stroke="#e5e7eb" stroke-width="10" opacity="0.8"/>
      <path d="M398 104 C424 132 428 184 398 212" stroke="#f8fafc" stroke-width="8" fill="none" stroke-linecap="round" opacity="0.85"/>
      <circle cx="398" cy="158" r="10" fill="#f8fafc"/>
    
  </g>
</svg>